<mxfile host="app.diagrams.net" agent="Mozilla/5.0 (Windows NT 10.0; Win64; x64) AppleWebKit/537.36 (KHTML, like Gecko) Chrome/129.0.0.0 Safari/537.36" version="24.7.17">
  <diagram id="C5RBs43oDa-KdzZeNtuy" name="Page-1">
    <mxGraphModel dx="2736" dy="1036" grid="1" gridSize="10" guides="1" tooltips="1" connect="1" arrows="1" fold="1" page="1" pageScale="1" pageWidth="827" pageHeight="1169" math="0" shadow="0">
      <root>
        <mxCell id="WIyWlLk6GJQsqaUBKTNV-0" />
        <mxCell id="WIyWlLk6GJQsqaUBKTNV-1" parent="WIyWlLk6GJQsqaUBKTNV-0" />
        <mxCell id="-_XFBiAu8jGyydXAzHmL-130" value="" style="group" connectable="0" vertex="1" parent="WIyWlLk6GJQsqaUBKTNV-1">
          <mxGeometry x="-160" y="370" width="480" height="380" as="geometry" />
        </mxCell>
        <mxCell id="-_XFBiAu8jGyydXAzHmL-131" value="" style="shape=folder;fontStyle=1;spacingTop=10;tabWidth=123;tabHeight=24;tabPosition=left;html=1;rounded=0;shadow=0;comic=0;labelBackgroundColor=none;strokeWidth=1;fontFamily=Verdana;fontSize=10;align=center;" vertex="1" parent="-_XFBiAu8jGyydXAzHmL-130">
          <mxGeometry y="-43.04" width="480" height="423.04" as="geometry" />
        </mxCell>
        <mxCell id="-_XFBiAu8jGyydXAzHmL-132" value="&amp;nbsp;Servidor" style="text;whiteSpace=wrap;html=1;" vertex="1" parent="-_XFBiAu8jGyydXAzHmL-130">
          <mxGeometry width="117.69066286528864" height="34.076086956521735" as="geometry" />
        </mxCell>
        <mxCell id="-_XFBiAu8jGyydXAzHmL-133" value="Backend" style="shape=folder;fontStyle=1;spacingTop=10;tabWidth=50;tabHeight=17;tabPosition=left;html=1;rounded=0;shadow=0;comic=0;labelBackgroundColor=none;strokeColor=#000000;strokeWidth=1;fillColor=#ffffff;fontFamily=Verdana;fontSize=10;fontColor=#000000;align=center;" vertex="1" parent="-_XFBiAu8jGyydXAzHmL-130">
          <mxGeometry x="220.32786885245898" y="34.076086956521756" width="88.13114754098362" height="54.5217391304348" as="geometry" />
        </mxCell>
        <mxCell id="-_XFBiAu8jGyydXAzHmL-134" value="Routes" style="shape=folder;fontStyle=1;spacingTop=10;tabWidth=50;tabHeight=1;tabPosition=left;html=1;rounded=0;shadow=0;comic=0;labelBackgroundColor=none;strokeColor=#000000;strokeWidth=1;fillColor=#ffffff;fontFamily=Verdana;fontSize=10;fontColor=#000000;align=center;" vertex="1" parent="-_XFBiAu8jGyydXAzHmL-130">
          <mxGeometry x="380.8564705882353" y="47.29607142857143" width="81.4964705882353" height="41.29714285714286" as="geometry" />
        </mxCell>
        <mxCell id="-_XFBiAu8jGyydXAzHmL-135" value="src" style="shape=folder;fontStyle=1;spacingTop=10;tabWidth=50;tabHeight=17;tabPosition=left;html=1;rounded=0;shadow=0;comic=0;labelBackgroundColor=none;strokeColor=#000000;strokeWidth=1;fillColor=#ffffff;fontFamily=Verdana;fontSize=10;fontColor=#000000;align=center;" vertex="1" parent="-_XFBiAu8jGyydXAzHmL-130">
          <mxGeometry x="159.9953712632594" y="104.59718944099382" width="88.13114754098362" height="54.5217391304348" as="geometry" />
        </mxCell>
        <mxCell id="-_XFBiAu8jGyydXAzHmL-136" value="Middleware" style="shape=folder;fontStyle=1;spacingTop=10;tabWidth=50;tabHeight=17;tabPosition=left;html=1;rounded=0;shadow=0;comic=0;labelBackgroundColor=none;strokeColor=#000000;strokeWidth=1;fillColor=#ffffff;fontFamily=Verdana;fontSize=10;fontColor=#000000;align=center;" vertex="1" parent="-_XFBiAu8jGyydXAzHmL-130">
          <mxGeometry x="380.8561620057859" y="187.09923913043477" width="88.13114754098362" height="54.5217391304348" as="geometry" />
        </mxCell>
        <mxCell id="-_XFBiAu8jGyydXAzHmL-137" value="Services" style="shape=folder;fontStyle=1;spacingTop=10;tabWidth=50;tabHeight=17;tabPosition=left;html=1;rounded=0;shadow=0;comic=0;labelBackgroundColor=none;strokeColor=#000000;strokeWidth=1;fillColor=#ffffff;fontFamily=Verdana;fontSize=10;fontColor=#000000;align=center;" vertex="1" parent="-_XFBiAu8jGyydXAzHmL-130">
          <mxGeometry x="380.8524590163934" y="116.21995341614907" width="88.13114754098362" height="54.5217391304348" as="geometry" />
        </mxCell>
        <mxCell id="-_XFBiAu8jGyydXAzHmL-138" value="Models" style="shape=folder;fontStyle=1;spacingTop=10;tabWidth=50;tabHeight=17;tabPosition=left;html=1;rounded=0;shadow=0;comic=0;labelBackgroundColor=none;strokeColor=#000000;strokeWidth=1;fillColor=#ffffff;fontFamily=Verdana;fontSize=10;fontColor=#000000;align=center;" vertex="1" parent="-_XFBiAu8jGyydXAzHmL-130">
          <mxGeometry x="71.8602121504339" y="197.99538819875778" width="88.13114754098362" height="54.5217391304348" as="geometry" />
        </mxCell>
        <mxCell id="-_XFBiAu8jGyydXAzHmL-139" value="Controllers" style="shape=folder;fontStyle=1;spacingTop=10;tabWidth=50;tabHeight=17;tabPosition=left;html=1;rounded=0;shadow=0;comic=0;labelBackgroundColor=none;strokeColor=#000000;strokeWidth=1;fillColor=#ffffff;fontFamily=Verdana;fontSize=10;fontColor=#000000;align=center;" vertex="1" parent="-_XFBiAu8jGyydXAzHmL-130">
          <mxGeometry x="207.05620057859213" y="197.99538819875778" width="88.13114754098362" height="54.5217391304348" as="geometry" />
        </mxCell>
        <mxCell id="-_XFBiAu8jGyydXAzHmL-140" style="edgeStyle=none;rounded=0;html=1;dashed=1;labelBackgroundColor=none;startFill=0;endArrow=open;endFill=0;endSize=10;fontFamily=Verdana;fontSize=10;exitX=0.5;exitY=1;exitPerimeter=0;exitDx=0;exitDy=0;entryX=0;entryY=0;entryDx=25;entryDy=0;entryPerimeter=0;" edge="1" parent="-_XFBiAu8jGyydXAzHmL-130" source="-_XFBiAu8jGyydXAzHmL-135" target="-_XFBiAu8jGyydXAzHmL-139">
          <mxGeometry relative="1" as="geometry">
            <mxPoint x="-184.08393442622955" y="152.14680745341627" as="sourcePoint" />
            <mxPoint x="291.1304347826087" y="215" as="targetPoint" />
          </mxGeometry>
        </mxCell>
        <mxCell id="-_XFBiAu8jGyydXAzHmL-141" style="edgeStyle=none;rounded=0;html=1;dashed=1;labelBackgroundColor=none;startFill=0;endArrow=open;endFill=0;endSize=10;fontFamily=Verdana;fontSize=10;exitX=0.5;exitY=1;exitPerimeter=0;entryX=0.89;entryY=0.312;entryDx=0;entryDy=0;entryPerimeter=0;exitDx=0;exitDy=0;" edge="1" parent="-_XFBiAu8jGyydXAzHmL-130" source="-_XFBiAu8jGyydXAzHmL-135" target="-_XFBiAu8jGyydXAzHmL-138">
          <mxGeometry relative="1" as="geometry">
            <mxPoint x="234.4918032786885" y="179.14285714285714" as="sourcePoint" />
            <mxPoint x="213.24590163934425" y="223.53913043478258" as="targetPoint" />
          </mxGeometry>
        </mxCell>
        <mxCell id="-_XFBiAu8jGyydXAzHmL-142" style="edgeStyle=none;rounded=0;html=1;dashed=1;labelBackgroundColor=none;startFill=0;endArrow=open;endFill=0;endSize=10;fontFamily=Verdana;fontSize=10;entryX=0;entryY=0;entryDx=0;entryDy=17;entryPerimeter=0;exitX=0;exitY=0;exitDx=93.6393442622951;exitDy=31.630434782608702;exitPerimeter=0;" edge="1" parent="-_XFBiAu8jGyydXAzHmL-130" source="-_XFBiAu8jGyydXAzHmL-133" target="-_XFBiAu8jGyydXAzHmL-134">
          <mxGeometry relative="1" as="geometry">
            <mxPoint x="196.7213114754098" y="97.56521739130436" as="sourcePoint" />
            <mxPoint x="213.24590163934425" y="223.53913043478258" as="targetPoint" />
          </mxGeometry>
        </mxCell>
        <mxCell id="-_XFBiAu8jGyydXAzHmL-143" style="edgeStyle=none;rounded=0;html=1;dashed=1;labelBackgroundColor=none;startFill=0;endArrow=open;endFill=0;endSize=10;fontFamily=Verdana;fontSize=10;exitX=0.5;exitY=1;exitPerimeter=0;entryX=0;entryY=0;entryDx=81;entryDy=17;entryPerimeter=0;exitDx=0;exitDy=0;" edge="1" parent="-_XFBiAu8jGyydXAzHmL-130" source="-_XFBiAu8jGyydXAzHmL-133" target="-_XFBiAu8jGyydXAzHmL-135">
          <mxGeometry relative="1" as="geometry">
            <mxPoint x="292.72131147540983" y="96.5813664596273" as="sourcePoint" />
            <mxPoint x="148.72131147540983" y="137.86211180124226" as="targetPoint" />
          </mxGeometry>
        </mxCell>
        <mxCell id="-_XFBiAu8jGyydXAzHmL-144" style="edgeStyle=none;rounded=0;html=1;dashed=1;labelBackgroundColor=none;startFill=0;endArrow=open;endFill=0;endSize=10;fontFamily=Verdana;fontSize=10;exitX=0.5;exitY=1;exitPerimeter=0;entryX=0.008;entryY=0.154;entryDx=0;entryDy=0;entryPerimeter=0;exitDx=0;exitDy=0;" edge="1" parent="-_XFBiAu8jGyydXAzHmL-130" source="-_XFBiAu8jGyydXAzHmL-133" target="-_XFBiAu8jGyydXAzHmL-136">
          <mxGeometry relative="1" as="geometry">
            <mxPoint x="314.7540983606557" y="96.5813664596273" as="sourcePoint" />
            <mxPoint x="276.1967213114754" y="137.86211180124226" as="targetPoint" />
          </mxGeometry>
        </mxCell>
        <mxCell id="-_XFBiAu8jGyydXAzHmL-145" style="edgeStyle=none;rounded=0;html=1;dashed=1;labelBackgroundColor=none;startFill=0;endArrow=open;endFill=0;endSize=10;fontFamily=Verdana;fontSize=10;exitX=0.75;exitY=1;exitPerimeter=0;entryX=0.005;entryY=0.187;entryDx=0;entryDy=0;entryPerimeter=0;exitDx=0;exitDy=0;" edge="1" parent="-_XFBiAu8jGyydXAzHmL-130" source="-_XFBiAu8jGyydXAzHmL-133" target="-_XFBiAu8jGyydXAzHmL-137">
          <mxGeometry relative="1" as="geometry">
            <mxPoint x="336.78688524590166" y="96.5813664596273" as="sourcePoint" />
            <mxPoint x="400.5245901639345" y="137.86211180124226" as="targetPoint" />
          </mxGeometry>
        </mxCell>
        <mxCell id="-_XFBiAu8jGyydXAzHmL-146" value="AuthController" style="shape=folder;fontStyle=1;spacingTop=10;tabWidth=50;tabHeight=17;tabPosition=left;html=1;rounded=0;shadow=0;comic=0;labelBackgroundColor=none;strokeColor=#000000;strokeWidth=1;fillColor=#ffffff;fontFamily=Verdana;fontSize=10;fontColor=#000000;align=center;" vertex="1" parent="-_XFBiAu8jGyydXAzHmL-130">
          <mxGeometry x="71.86315710033125" y="289.99538819875784" width="88.13114754098362" height="54.5217391304348" as="geometry" />
        </mxCell>
        <mxCell id="-_XFBiAu8jGyydXAzHmL-147" value="&lt;code&gt;PaymentController&lt;/code&gt;" style="shape=folder;fontStyle=1;spacingTop=10;tabWidth=50;tabHeight=17;tabPosition=left;html=1;rounded=0;shadow=0;comic=0;labelBackgroundColor=none;strokeColor=#000000;strokeWidth=1;fillColor=#ffffff;fontFamily=Verdana;fontSize=10;fontColor=#000000;align=center;" vertex="1" parent="-_XFBiAu8jGyydXAzHmL-130">
          <mxGeometry x="197.43652173913043" y="287.26" width="107.36347826086956" height="60" as="geometry" />
        </mxCell>
        <mxCell id="-_XFBiAu8jGyydXAzHmL-148" value="&lt;code&gt;AppointmentController&lt;/code&gt;" style="shape=folder;fontStyle=1;spacingTop=10;tabWidth=50;tabHeight=17;tabPosition=left;html=1;rounded=0;shadow=0;comic=0;labelBackgroundColor=none;strokeColor=#000000;strokeWidth=1;fillColor=#ffffff;fontFamily=Verdana;fontSize=10;fontColor=#000000;align=center;" vertex="1" parent="-_XFBiAu8jGyydXAzHmL-130">
          <mxGeometry x="333.9130434782609" y="290" width="119.43652173913043" height="60" as="geometry" />
        </mxCell>
        <mxCell id="-_XFBiAu8jGyydXAzHmL-149" style="edgeStyle=none;rounded=0;html=1;dashed=1;labelBackgroundColor=none;startFill=0;endArrow=open;endFill=0;endSize=10;fontFamily=Verdana;fontSize=10;exitX=0.5;exitY=1;exitPerimeter=0;entryX=0;entryY=0;entryDx=84.45901639344264;entryDy=17;entryPerimeter=0;exitDx=0;exitDy=0;" edge="1" parent="-_XFBiAu8jGyydXAzHmL-130" source="-_XFBiAu8jGyydXAzHmL-139" target="-_XFBiAu8jGyydXAzHmL-146">
          <mxGeometry relative="1" as="geometry">
            <mxPoint x="214.95652173913044" y="169" as="sourcePoint" />
            <mxPoint x="160.69565217391303" y="225" as="targetPoint" />
            <Array as="points" />
          </mxGeometry>
        </mxCell>
        <mxCell id="-_XFBiAu8jGyydXAzHmL-150" value="" style="shape=folder;fontStyle=1;spacingTop=10;tabWidth=123;tabHeight=24;tabPosition=left;html=1;rounded=0;shadow=0;comic=0;labelBackgroundColor=none;strokeColor=#000000;strokeWidth=1;fillColor=#ffffff;fontFamily=Verdana;fontSize=10;fontColor=#000000;align=center;container=0;" vertex="1" parent="WIyWlLk6GJQsqaUBKTNV-1">
          <mxGeometry x="355" y="140" width="805" height="710" as="geometry" />
        </mxCell>
        <mxCell id="-_XFBiAu8jGyydXAzHmL-151" style="edgeStyle=none;rounded=0;html=1;dashed=1;labelBackgroundColor=none;startFill=0;endArrow=open;endFill=0;endSize=10;fontFamily=Verdana;fontSize=10;entryX=-0.003;entryY=0.411;entryPerimeter=0;" edge="1" parent="WIyWlLk6GJQsqaUBKTNV-1" source="-_XFBiAu8jGyydXAzHmL-152" target="-_XFBiAu8jGyydXAzHmL-153">
          <mxGeometry relative="1" as="geometry" />
        </mxCell>
        <mxCell id="-_XFBiAu8jGyydXAzHmL-152" value="&lt;u&gt;Frontend&lt;/u&gt;" style="shape=folder;fontStyle=1;spacingTop=10;tabWidth=50;tabHeight=17;tabPosition=left;html=1;rounded=0;shadow=0;comic=0;labelBackgroundColor=none;strokeColor=#000000;strokeWidth=1;fillColor=#ffffff;fontFamily=Verdana;fontSize=10;fontColor=#000000;align=center;container=0;" vertex="1" parent="WIyWlLk6GJQsqaUBKTNV-1">
          <mxGeometry x="620" y="210" width="112" height="70" as="geometry" />
        </mxCell>
        <mxCell id="-_XFBiAu8jGyydXAzHmL-153" value="&lt;u&gt;public&lt;/u&gt;" style="shape=folder;fontStyle=1;spacingTop=10;tabWidth=50;tabHeight=17;tabPosition=left;html=1;rounded=0;shadow=0;comic=0;labelBackgroundColor=none;strokeColor=#000000;strokeWidth=1;fillColor=#ffffff;fontFamily=Verdana;fontSize=10;fontColor=#000000;align=center;container=0;" vertex="1" parent="WIyWlLk6GJQsqaUBKTNV-1">
          <mxGeometry x="939.5" y="221.25" width="112" height="70" as="geometry" />
        </mxCell>
        <mxCell id="-_XFBiAu8jGyydXAzHmL-154" value="" style="triangle;whiteSpace=wrap;html=1;rounded=0;shadow=0;comic=0;labelBackgroundColor=none;strokeColor=#000000;strokeWidth=1;fillColor=#ffffff;fontFamily=Verdana;fontSize=10;fontColor=#000000;align=center;rotation=-90;container=0;" vertex="1" parent="WIyWlLk6GJQsqaUBKTNV-1">
          <mxGeometry x="468" y="177.75" width="15" height="20" as="geometry" />
        </mxCell>
        <mxCell id="-_XFBiAu8jGyydXAzHmL-155" value="Website" style="text;whiteSpace=wrap;html=1;container=0;" vertex="1" parent="WIyWlLk6GJQsqaUBKTNV-1">
          <mxGeometry x="370" y="175.75" width="80" height="30" as="geometry" />
        </mxCell>
        <mxCell id="-_XFBiAu8jGyydXAzHmL-156" value="&lt;div&gt;&lt;u&gt;src&lt;/u&gt;&lt;/div&gt;" style="shape=folder;fontStyle=1;spacingTop=10;tabWidth=50;tabHeight=17;tabPosition=left;html=1;rounded=0;shadow=0;comic=0;labelBackgroundColor=none;strokeColor=#000000;strokeWidth=1;fillColor=#ffffff;fontFamily=Verdana;fontSize=10;fontColor=#000000;align=center;container=0;" vertex="1" parent="WIyWlLk6GJQsqaUBKTNV-1">
          <mxGeometry x="630" y="320" width="112" height="70" as="geometry" />
        </mxCell>
        <mxCell id="-_XFBiAu8jGyydXAzHmL-157" style="edgeStyle=none;rounded=0;html=1;dashed=1;labelBackgroundColor=none;startFill=0;endArrow=open;endFill=0;endSize=10;fontFamily=Verdana;fontSize=10;entryX=0.554;entryY=0.286;entryPerimeter=0;entryDx=0;entryDy=0;exitX=0.634;exitY=0.996;exitDx=0;exitDy=0;exitPerimeter=0;" edge="1" parent="WIyWlLk6GJQsqaUBKTNV-1" source="-_XFBiAu8jGyydXAzHmL-152" target="-_XFBiAu8jGyydXAzHmL-156">
          <mxGeometry relative="1" as="geometry">
            <mxPoint x="739.5" y="286.25" as="sourcePoint" />
            <mxPoint x="854.5" y="347.25" as="targetPoint" />
          </mxGeometry>
        </mxCell>
        <mxCell id="-_XFBiAu8jGyydXAzHmL-158" value="&lt;div&gt;&lt;u&gt;Icons&lt;/u&gt;&lt;/div&gt;" style="shape=folder;fontStyle=1;spacingTop=10;tabWidth=50;tabHeight=17;tabPosition=left;html=1;rounded=0;shadow=0;comic=0;labelBackgroundColor=none;strokeColor=#000000;strokeWidth=1;fillColor=#ffffff;fontFamily=Verdana;fontSize=10;fontColor=#000000;align=center;container=0;" vertex="1" parent="WIyWlLk6GJQsqaUBKTNV-1">
          <mxGeometry x="880" y="320" width="112" height="70" as="geometry" />
        </mxCell>
        <mxCell id="-_XFBiAu8jGyydXAzHmL-159" style="edgeStyle=none;rounded=0;html=1;dashed=1;labelBackgroundColor=none;startFill=0;endArrow=open;endFill=0;endSize=10;fontFamily=Verdana;fontSize=10;exitX=0.5;exitY=1;exitDx=0;exitDy=0;exitPerimeter=0;entryX=0;entryY=0;entryDx=81;entryDy=17;entryPerimeter=0;" edge="1" parent="WIyWlLk6GJQsqaUBKTNV-1" source="-_XFBiAu8jGyydXAzHmL-153" target="-_XFBiAu8jGyydXAzHmL-158">
          <mxGeometry relative="1" as="geometry">
            <mxPoint x="986.5" y="381.25" as="sourcePoint" />
            <mxPoint x="1010.5" y="341.25" as="targetPoint" />
          </mxGeometry>
        </mxCell>
        <mxCell id="-_XFBiAu8jGyydXAzHmL-160" value="&lt;u&gt;Components&lt;/u&gt;" style="shape=folder;fontStyle=1;spacingTop=10;tabWidth=50;tabHeight=17;tabPosition=left;html=1;rounded=0;shadow=0;comic=0;labelBackgroundColor=none;strokeColor=#000000;strokeWidth=1;fillColor=#ffffff;fontFamily=Verdana;fontSize=10;fontColor=#000000;align=center;container=0;" vertex="1" parent="WIyWlLk6GJQsqaUBKTNV-1">
          <mxGeometry x="429.5" y="446.25" width="112" height="70" as="geometry" />
        </mxCell>
        <mxCell id="-_XFBiAu8jGyydXAzHmL-161" style="edgeStyle=none;rounded=0;html=1;dashed=1;labelBackgroundColor=none;startFill=0;endArrow=open;endFill=0;endSize=10;fontFamily=Verdana;fontSize=10;entryX=0;entryY=0;entryPerimeter=0;entryDx=81;entryDy=17;exitX=0.081;exitY=1.01;exitDx=0;exitDy=0;exitPerimeter=0;" edge="1" parent="WIyWlLk6GJQsqaUBKTNV-1" source="-_XFBiAu8jGyydXAzHmL-156" target="-_XFBiAu8jGyydXAzHmL-160">
          <mxGeometry relative="1" as="geometry">
            <mxPoint x="509.5" y="421.25" as="sourcePoint" />
            <mxPoint x="624.5" y="482.25" as="targetPoint" />
          </mxGeometry>
        </mxCell>
        <mxCell id="-_XFBiAu8jGyydXAzHmL-162" value="&lt;u&gt;Payments&lt;/u&gt;" style="shape=folder;fontStyle=1;spacingTop=10;tabWidth=50;tabHeight=17;tabPosition=left;html=1;rounded=0;shadow=0;comic=0;labelBackgroundColor=none;strokeColor=#000000;strokeWidth=1;fillColor=#ffffff;fontFamily=Verdana;fontSize=10;fontColor=#000000;align=center;container=0;" vertex="1" parent="WIyWlLk6GJQsqaUBKTNV-1">
          <mxGeometry x="980" y="446.25" width="112" height="70" as="geometry" />
        </mxCell>
        <mxCell id="-_XFBiAu8jGyydXAzHmL-163" style="edgeStyle=none;rounded=0;html=1;dashed=1;labelBackgroundColor=none;startFill=0;endArrow=open;endFill=0;endSize=10;fontFamily=Verdana;fontSize=10;entryX=0;entryY=0;entryPerimeter=0;entryDx=81;entryDy=17;exitX=0;exitY=0;exitDx=112;exitDy=56.75;exitPerimeter=0;" edge="1" parent="WIyWlLk6GJQsqaUBKTNV-1" source="-_XFBiAu8jGyydXAzHmL-156" target="-_XFBiAu8jGyydXAzHmL-162">
          <mxGeometry relative="1" as="geometry">
            <mxPoint x="1049.5" y="421.25" as="sourcePoint" />
            <mxPoint x="1164.5" y="482.25" as="targetPoint" />
          </mxGeometry>
        </mxCell>
        <mxCell id="-_XFBiAu8jGyydXAzHmL-164" value="&lt;p data-pm-slice=&quot;1 1 []&quot;&gt;appointments&lt;/p&gt;" style="shape=folder;fontStyle=1;spacingTop=10;tabWidth=50;tabHeight=17;tabPosition=left;html=1;rounded=0;shadow=0;comic=0;labelBackgroundColor=none;strokeColor=#000000;strokeWidth=1;fillColor=#ffffff;fontFamily=Verdana;fontSize=10;fontColor=#000000;align=center;container=0;" vertex="1" parent="WIyWlLk6GJQsqaUBKTNV-1">
          <mxGeometry x="839.5" y="446.25" width="112" height="70" as="geometry" />
        </mxCell>
        <mxCell id="-_XFBiAu8jGyydXAzHmL-165" style="edgeStyle=none;rounded=0;html=1;dashed=1;labelBackgroundColor=none;startFill=0;endArrow=open;endFill=0;endSize=10;fontFamily=Verdana;fontSize=10;entryX=0;entryY=0;entryPerimeter=0;entryDx=81;entryDy=17;exitX=0;exitY=0;exitDx=112;exitDy=70;exitPerimeter=0;" edge="1" parent="WIyWlLk6GJQsqaUBKTNV-1" source="-_XFBiAu8jGyydXAzHmL-156" target="-_XFBiAu8jGyydXAzHmL-164">
          <mxGeometry relative="1" as="geometry">
            <mxPoint x="919.5" y="421.25" as="sourcePoint" />
            <mxPoint x="1034.5" y="482.25" as="targetPoint" />
          </mxGeometry>
        </mxCell>
        <mxCell id="-_XFBiAu8jGyydXAzHmL-166" value="&lt;u&gt;Auth&lt;/u&gt;" style="shape=folder;fontStyle=1;spacingTop=10;tabWidth=50;tabHeight=17;tabPosition=left;html=1;rounded=0;shadow=0;comic=0;labelBackgroundColor=none;strokeColor=#000000;strokeWidth=1;fillColor=#ffffff;fontFamily=Verdana;fontSize=10;fontColor=#000000;align=center;container=0;" vertex="1" parent="WIyWlLk6GJQsqaUBKTNV-1">
          <mxGeometry x="704" y="446.25" width="112" height="70" as="geometry" />
        </mxCell>
        <mxCell id="-_XFBiAu8jGyydXAzHmL-167" style="edgeStyle=none;rounded=0;html=1;dashed=1;labelBackgroundColor=none;startFill=0;endArrow=open;endFill=0;endSize=10;fontFamily=Verdana;fontSize=10;entryX=0;entryY=0;entryPerimeter=0;entryDx=81;entryDy=17;exitX=0.5;exitY=1;exitDx=0;exitDy=0;exitPerimeter=0;" edge="1" parent="WIyWlLk6GJQsqaUBKTNV-1" source="-_XFBiAu8jGyydXAzHmL-156" target="-_XFBiAu8jGyydXAzHmL-166">
          <mxGeometry relative="1" as="geometry">
            <mxPoint x="779.5" y="326.25" as="sourcePoint" />
            <mxPoint x="894.5" y="387.25" as="targetPoint" />
          </mxGeometry>
        </mxCell>
        <mxCell id="-_XFBiAu8jGyydXAzHmL-168" value="&lt;u&gt;Views&lt;/u&gt;" style="shape=folder;fontStyle=1;spacingTop=10;tabWidth=50;tabHeight=17;tabPosition=left;html=1;rounded=0;shadow=0;comic=0;labelBackgroundColor=none;strokeColor=#000000;strokeWidth=1;fillColor=#ffffff;fontFamily=Verdana;fontSize=10;fontColor=#000000;align=center;container=0;" vertex="1" parent="WIyWlLk6GJQsqaUBKTNV-1">
          <mxGeometry x="571" y="446.25" width="112" height="70" as="geometry" />
        </mxCell>
        <mxCell id="-_XFBiAu8jGyydXAzHmL-169" style="edgeStyle=none;rounded=0;html=1;dashed=1;labelBackgroundColor=none;startFill=0;endArrow=open;endFill=0;endSize=10;fontFamily=Verdana;fontSize=10;entryX=0;entryY=0;entryPerimeter=0;entryDx=81;entryDy=17;exitX=0.25;exitY=1;exitDx=0;exitDy=0;exitPerimeter=0;" edge="1" parent="WIyWlLk6GJQsqaUBKTNV-1" source="-_XFBiAu8jGyydXAzHmL-156" target="-_XFBiAu8jGyydXAzHmL-168">
          <mxGeometry relative="1" as="geometry">
            <mxPoint x="651" y="421.25" as="sourcePoint" />
            <mxPoint x="766" y="482.25" as="targetPoint" />
          </mxGeometry>
        </mxCell>
        <mxCell id="-_XFBiAu8jGyydXAzHmL-170" value="Common" style="shape=folder;fontStyle=1;spacingTop=10;tabWidth=50;tabHeight=17;tabPosition=left;html=1;rounded=0;shadow=0;comic=0;labelBackgroundColor=none;strokeColor=#000000;strokeWidth=1;fillColor=#ffffff;fontFamily=Verdana;fontSize=10;fontColor=#000000;align=center;container=0;" vertex="1" parent="WIyWlLk6GJQsqaUBKTNV-1">
          <mxGeometry x="413" y="550" width="112" height="70" as="geometry" />
        </mxCell>
        <mxCell id="-_XFBiAu8jGyydXAzHmL-171" value="&lt;u&gt;Layout&lt;/u&gt;" style="shape=folder;fontStyle=1;spacingTop=10;tabWidth=50;tabHeight=17;tabPosition=left;html=1;rounded=0;shadow=0;comic=0;labelBackgroundColor=none;strokeColor=#000000;strokeWidth=1;fillColor=#ffffff;fontFamily=Verdana;fontSize=10;fontColor=#000000;align=center;container=0;" vertex="1" parent="WIyWlLk6GJQsqaUBKTNV-1">
          <mxGeometry x="413" y="641.25" width="112" height="70" as="geometry" />
        </mxCell>
        <mxCell id="-_XFBiAu8jGyydXAzHmL-172" value="&lt;u&gt;UI&lt;/u&gt;" style="shape=folder;fontStyle=1;spacingTop=10;tabWidth=50;tabHeight=17;tabPosition=left;html=1;rounded=0;shadow=0;comic=0;labelBackgroundColor=none;strokeColor=#000000;strokeWidth=1;fillColor=#ffffff;fontFamily=Verdana;fontSize=10;fontColor=#000000;align=center;container=0;" vertex="1" parent="WIyWlLk6GJQsqaUBKTNV-1">
          <mxGeometry x="413" y="731.25" width="110.25" height="72.5" as="geometry" />
        </mxCell>
        <mxCell id="-_XFBiAu8jGyydXAzHmL-173" style="edgeStyle=none;rounded=0;html=1;dashed=1;labelBackgroundColor=none;startFill=0;endArrow=open;endFill=0;endSize=10;fontFamily=Verdana;fontSize=10;exitX=0;exitY=0;exitDx=112;exitDy=70;exitPerimeter=0;entryX=0;entryY=0;entryDx=112;entryDy=43.5;entryPerimeter=0;" edge="1" parent="WIyWlLk6GJQsqaUBKTNV-1" source="-_XFBiAu8jGyydXAzHmL-160" target="-_XFBiAu8jGyydXAzHmL-170">
          <mxGeometry relative="1" as="geometry">
            <mxPoint x="599.5" y="516.25" as="sourcePoint" />
            <mxPoint x="550" y="600" as="targetPoint" />
            <Array as="points">
              <mxPoint x="542" y="590" />
            </Array>
          </mxGeometry>
        </mxCell>
        <mxCell id="-_XFBiAu8jGyydXAzHmL-174" style="edgeStyle=none;rounded=0;html=1;dashed=1;labelBackgroundColor=none;startFill=0;endArrow=open;endFill=0;endSize=10;fontFamily=Verdana;fontSize=10;entryX=0;entryY=0;entryPerimeter=0;entryDx=112;entryDy=43.5;exitX=0;exitY=0;exitDx=112;exitDy=70;exitPerimeter=0;" edge="1" parent="WIyWlLk6GJQsqaUBKTNV-1" source="-_XFBiAu8jGyydXAzHmL-160" target="-_XFBiAu8jGyydXAzHmL-171">
          <mxGeometry relative="1" as="geometry">
            <mxPoint x="697.5" y="391.25" as="sourcePoint" />
            <mxPoint x="662.5" y="473.25" as="targetPoint" />
            <Array as="points">
              <mxPoint x="542" y="685" />
            </Array>
          </mxGeometry>
        </mxCell>
        <mxCell id="-_XFBiAu8jGyydXAzHmL-175" style="edgeStyle=none;rounded=0;html=1;dashed=1;labelBackgroundColor=none;startFill=0;endArrow=open;endFill=0;endSize=10;fontFamily=Verdana;fontSize=10;exitX=0;exitY=0;exitDx=112;exitDy=70;exitPerimeter=0;entryX=0;entryY=0;entryDx=110.25;entryDy=44.75;entryPerimeter=0;" edge="1" parent="WIyWlLk6GJQsqaUBKTNV-1" source="-_XFBiAu8jGyydXAzHmL-160" target="-_XFBiAu8jGyydXAzHmL-172">
          <mxGeometry relative="1" as="geometry">
            <mxPoint x="644.5" y="527.25" as="sourcePoint" />
            <mxPoint x="532" y="750" as="targetPoint" />
            <Array as="points">
              <mxPoint x="540" y="780" />
            </Array>
          </mxGeometry>
        </mxCell>
        <mxCell id="-_XFBiAu8jGyydXAzHmL-176" value="&lt;u&gt;checkout&lt;/u&gt;" style="shape=folder;fontStyle=1;spacingTop=10;tabWidth=50;tabHeight=17;tabPosition=left;html=1;rounded=0;shadow=0;comic=0;labelBackgroundColor=none;strokeColor=#000000;strokeWidth=1;fillColor=#ffffff;fontFamily=Verdana;fontSize=10;fontColor=#000000;align=center;container=0;" vertex="1" parent="WIyWlLk6GJQsqaUBKTNV-1">
          <mxGeometry x="960" y="571.25" width="112" height="70" as="geometry" />
        </mxCell>
        <mxCell id="-_XFBiAu8jGyydXAzHmL-177" style="edgeStyle=none;rounded=0;html=1;dashed=1;labelBackgroundColor=none;startFill=0;endArrow=open;endFill=0;endSize=10;fontFamily=Verdana;fontSize=10;entryX=0;entryY=0;entryDx=112;entryDy=43.5;entryPerimeter=0;" edge="1" parent="WIyWlLk6GJQsqaUBKTNV-1" target="-_XFBiAu8jGyydXAzHmL-191">
          <mxGeometry relative="1" as="geometry">
            <mxPoint x="1090" y="520" as="sourcePoint" />
            <mxPoint x="1090" y="810" as="targetPoint" />
            <Array as="points">
              <mxPoint x="1090" y="790" />
            </Array>
          </mxGeometry>
        </mxCell>
        <mxCell id="-_XFBiAu8jGyydXAzHmL-178" value="&lt;div&gt;&lt;u&gt;Assets&lt;/u&gt;&lt;/div&gt;" style="shape=folder;fontStyle=1;spacingTop=10;tabWidth=50;tabHeight=17;tabPosition=left;html=1;rounded=0;shadow=0;comic=0;labelBackgroundColor=none;strokeColor=#000000;strokeWidth=1;fillColor=#ffffff;fontFamily=Verdana;fontSize=10;fontColor=#000000;align=center;container=0;" vertex="1" parent="WIyWlLk6GJQsqaUBKTNV-1">
          <mxGeometry x="1000" y="320" width="112" height="70" as="geometry" />
        </mxCell>
        <mxCell id="-_XFBiAu8jGyydXAzHmL-179" style="edgeStyle=none;rounded=0;html=1;dashed=1;labelBackgroundColor=none;startFill=0;endArrow=open;endFill=0;endSize=10;fontFamily=Verdana;fontSize=10;exitX=0.5;exitY=1;exitDx=0;exitDy=0;exitPerimeter=0;entryX=0;entryY=0;entryDx=50;entryDy=17;entryPerimeter=0;" edge="1" parent="WIyWlLk6GJQsqaUBKTNV-1" source="-_XFBiAu8jGyydXAzHmL-153" target="-_XFBiAu8jGyydXAzHmL-178">
          <mxGeometry relative="1" as="geometry">
            <mxPoint x="1006" y="301" as="sourcePoint" />
            <mxPoint x="971" y="338" as="targetPoint" />
          </mxGeometry>
        </mxCell>
        <mxCell id="-_XFBiAu8jGyydXAzHmL-180" value="&lt;u&gt;Login&lt;/u&gt;" style="shape=folder;fontStyle=1;spacingTop=10;tabWidth=50;tabHeight=17;tabPosition=left;html=1;rounded=0;shadow=0;comic=0;labelBackgroundColor=none;strokeColor=#000000;strokeWidth=1;fillColor=#ffffff;fontFamily=Verdana;fontSize=10;fontColor=#000000;align=center;container=0;" vertex="1" parent="WIyWlLk6GJQsqaUBKTNV-1">
          <mxGeometry x="660" y="560" width="112" height="70" as="geometry" />
        </mxCell>
        <mxCell id="-_XFBiAu8jGyydXAzHmL-181" value="&lt;u&gt;Register&lt;/u&gt;" style="shape=folder;fontStyle=1;spacingTop=10;tabWidth=50;tabHeight=17;tabPosition=left;html=1;rounded=0;shadow=0;comic=0;labelBackgroundColor=none;strokeColor=#000000;strokeWidth=1;fillColor=#ffffff;fontFamily=Verdana;fontSize=10;fontColor=#000000;align=center;container=0;" vertex="1" parent="WIyWlLk6GJQsqaUBKTNV-1">
          <mxGeometry x="660" y="661.25" width="112" height="70" as="geometry" />
        </mxCell>
        <mxCell id="-_XFBiAu8jGyydXAzHmL-182" value="&lt;u&gt;Forgot-Password&lt;/u&gt;" style="shape=folder;fontStyle=1;spacingTop=10;tabWidth=50;tabHeight=17;tabPosition=left;html=1;rounded=0;shadow=0;comic=0;labelBackgroundColor=none;strokeColor=#000000;strokeWidth=1;fillColor=#ffffff;fontFamily=Verdana;fontSize=10;fontColor=#000000;align=center;container=0;" vertex="1" parent="WIyWlLk6GJQsqaUBKTNV-1">
          <mxGeometry x="670" y="760" width="112" height="70" as="geometry" />
        </mxCell>
        <mxCell id="-_XFBiAu8jGyydXAzHmL-183" value="&lt;u&gt;Calendar&lt;/u&gt;" style="shape=folder;fontStyle=1;spacingTop=10;tabWidth=50;tabHeight=17;tabPosition=left;html=1;rounded=0;shadow=0;comic=0;labelBackgroundColor=none;strokeColor=#000000;strokeWidth=1;fillColor=#ffffff;fontFamily=Verdana;fontSize=10;fontColor=#000000;align=center;container=0;" vertex="1" parent="WIyWlLk6GJQsqaUBKTNV-1">
          <mxGeometry x="815.5" y="571.25" width="112" height="70" as="geometry" />
        </mxCell>
        <mxCell id="-_XFBiAu8jGyydXAzHmL-184" value="&lt;u&gt;Appointment-form&lt;/u&gt;" style="shape=folder;fontStyle=1;spacingTop=10;tabWidth=50;tabHeight=17;tabPosition=left;html=1;rounded=0;shadow=0;comic=0;labelBackgroundColor=none;strokeColor=#000000;strokeWidth=1;fillColor=#ffffff;fontFamily=Verdana;fontSize=10;fontColor=#000000;align=center;container=0;" vertex="1" parent="WIyWlLk6GJQsqaUBKTNV-1">
          <mxGeometry x="815.5" y="670" width="112" height="70" as="geometry" />
        </mxCell>
        <mxCell id="-_XFBiAu8jGyydXAzHmL-185" style="edgeStyle=none;rounded=0;html=1;dashed=1;labelBackgroundColor=none;startFill=0;endArrow=open;endFill=0;endSize=10;fontFamily=Verdana;fontSize=10;entryX=0;entryY=0;entryPerimeter=0;entryDx=112;entryDy=43.5;" edge="1" parent="WIyWlLk6GJQsqaUBKTNV-1" target="-_XFBiAu8jGyydXAzHmL-184">
          <mxGeometry relative="1" as="geometry">
            <mxPoint x="939.5" y="504.5" as="sourcePoint" />
            <mxPoint x="941" y="791.25" as="targetPoint" />
            <Array as="points">
              <mxPoint x="938" y="710" />
            </Array>
          </mxGeometry>
        </mxCell>
        <mxCell id="-_XFBiAu8jGyydXAzHmL-186" style="edgeStyle=none;rounded=0;html=1;dashed=1;labelBackgroundColor=none;startFill=0;endArrow=open;endFill=0;endSize=10;fontFamily=Verdana;fontSize=10;exitX=0;exitY=0;exitDx=112;exitDy=70;exitPerimeter=0;" edge="1" parent="WIyWlLk6GJQsqaUBKTNV-1">
          <mxGeometry relative="1" as="geometry">
            <mxPoint x="939" y="516.2499999999995" as="sourcePoint" />
            <mxPoint x="930" y="610" as="targetPoint" />
            <Array as="points">
              <mxPoint x="939.5" y="606" />
            </Array>
          </mxGeometry>
        </mxCell>
        <mxCell id="-_XFBiAu8jGyydXAzHmL-187" style="edgeStyle=none;rounded=0;html=1;dashed=1;labelBackgroundColor=none;startFill=0;endArrow=open;endFill=0;endSize=10;fontFamily=Verdana;fontSize=10;entryX=0;entryY=0;entryDx=112;entryDy=30.25;entryPerimeter=0;" edge="1" parent="WIyWlLk6GJQsqaUBKTNV-1" target="-_XFBiAu8jGyydXAzHmL-182">
          <mxGeometry relative="1" as="geometry">
            <mxPoint x="795" y="510" as="sourcePoint" />
            <mxPoint x="780" y="800" as="targetPoint" />
            <Array as="points">
              <mxPoint x="799" y="794.5" />
            </Array>
          </mxGeometry>
        </mxCell>
        <mxCell id="-_XFBiAu8jGyydXAzHmL-188" style="edgeStyle=none;rounded=0;html=1;dashed=1;labelBackgroundColor=none;startFill=0;endArrow=open;endFill=0;endSize=10;fontFamily=Verdana;fontSize=10;" edge="1" parent="WIyWlLk6GJQsqaUBKTNV-1">
          <mxGeometry relative="1" as="geometry">
            <mxPoint x="799" y="514.5" as="sourcePoint" />
            <mxPoint x="770" y="597" as="targetPoint" />
            <Array as="points">
              <mxPoint x="799" y="594.5" />
            </Array>
          </mxGeometry>
        </mxCell>
        <mxCell id="-_XFBiAu8jGyydXAzHmL-189" style="edgeStyle=none;rounded=0;html=1;dashed=1;labelBackgroundColor=none;startFill=0;endArrow=open;endFill=0;endSize=10;fontFamily=Verdana;fontSize=10;entryX=0;entryY=0;entryDx=112;entryDy=43.5;entryPerimeter=0;" edge="1" parent="WIyWlLk6GJQsqaUBKTNV-1" target="-_XFBiAu8jGyydXAzHmL-181">
          <mxGeometry relative="1" as="geometry">
            <mxPoint x="799" y="514.5" as="sourcePoint" />
            <mxPoint x="751" y="700" as="targetPoint" />
            <Array as="points">
              <mxPoint x="799" y="704.5" />
            </Array>
          </mxGeometry>
        </mxCell>
        <mxCell id="-_XFBiAu8jGyydXAzHmL-190" value="&lt;u&gt;confirmation&lt;/u&gt;" style="shape=folder;fontStyle=1;spacingTop=10;tabWidth=50;tabHeight=17;tabPosition=left;html=1;rounded=0;shadow=0;comic=0;labelBackgroundColor=none;strokeColor=#000000;strokeWidth=1;fillColor=#ffffff;fontFamily=Verdana;fontSize=10;fontColor=#000000;align=center;container=0;" vertex="1" parent="WIyWlLk6GJQsqaUBKTNV-1">
          <mxGeometry x="960" y="653.5" width="112" height="70" as="geometry" />
        </mxCell>
        <mxCell id="-_XFBiAu8jGyydXAzHmL-191" value="&lt;u&gt;history&lt;/u&gt;" style="shape=folder;fontStyle=1;spacingTop=10;tabWidth=50;tabHeight=17;tabPosition=left;html=1;rounded=0;shadow=0;comic=0;labelBackgroundColor=none;strokeColor=#000000;strokeWidth=1;fillColor=#ffffff;fontFamily=Verdana;fontSize=10;fontColor=#000000;align=center;container=0;" vertex="1" parent="WIyWlLk6GJQsqaUBKTNV-1">
          <mxGeometry x="960" y="750" width="112" height="70" as="geometry" />
        </mxCell>
        <mxCell id="-_XFBiAu8jGyydXAzHmL-192" style="edgeStyle=none;rounded=0;html=1;dashed=1;labelBackgroundColor=none;startFill=0;endArrow=open;endFill=0;endSize=10;fontFamily=Verdana;fontSize=10;entryX=0;entryY=0;entryDx=112;entryDy=56.75;entryPerimeter=0;" edge="1" parent="WIyWlLk6GJQsqaUBKTNV-1" target="-_XFBiAu8jGyydXAzHmL-190">
          <mxGeometry relative="1" as="geometry">
            <mxPoint x="1092" y="520" as="sourcePoint" />
            <mxPoint x="1074" y="783" as="targetPoint" />
            <Array as="points">
              <mxPoint x="1092" y="710" />
            </Array>
          </mxGeometry>
        </mxCell>
        <mxCell id="-_XFBiAu8jGyydXAzHmL-193" style="edgeStyle=none;rounded=0;html=1;dashed=1;labelBackgroundColor=none;startFill=0;endArrow=open;endFill=0;endSize=10;fontFamily=Verdana;fontSize=10;entryX=0;entryY=0;entryDx=112;entryDy=56.75;entryPerimeter=0;" edge="1" parent="WIyWlLk6GJQsqaUBKTNV-1" target="-_XFBiAu8jGyydXAzHmL-176">
          <mxGeometry relative="1" as="geometry">
            <mxPoint x="1092" y="521.25" as="sourcePoint" />
            <mxPoint x="1072" y="711.25" as="targetPoint" />
            <Array as="points">
              <mxPoint x="1092" y="620" />
            </Array>
          </mxGeometry>
        </mxCell>
        <mxCell id="-_XFBiAu8jGyydXAzHmL-194" style="edgeStyle=none;rounded=0;html=1;dashed=1;labelBackgroundColor=none;startFill=0;endArrow=open;endFill=0;endSize=10;fontFamily=Verdana;fontSize=10;entryX=0;entryY=0;entryDx=50;entryDy=17;entryPerimeter=0;" edge="1" parent="WIyWlLk6GJQsqaUBKTNV-1" target="-_XFBiAu8jGyydXAzHmL-147">
          <mxGeometry relative="1" as="geometry">
            <mxPoint x="100" y="620" as="sourcePoint" />
            <mxPoint x="23" y="687" as="targetPoint" />
            <Array as="points" />
          </mxGeometry>
        </mxCell>
        <mxCell id="-_XFBiAu8jGyydXAzHmL-195" style="edgeStyle=none;rounded=0;html=1;dashed=1;labelBackgroundColor=none;startFill=0;endArrow=open;endFill=0;endSize=10;fontFamily=Verdana;fontSize=10;entryX=-0.026;entryY=0.167;entryDx=0;entryDy=0;entryPerimeter=0;" edge="1" parent="WIyWlLk6GJQsqaUBKTNV-1" target="-_XFBiAu8jGyydXAzHmL-148">
          <mxGeometry relative="1" as="geometry">
            <mxPoint x="100" y="620" as="sourcePoint" />
            <mxPoint x="109" y="684" as="targetPoint" />
            <Array as="points" />
          </mxGeometry>
        </mxCell>
      </root>
    </mxGraphModel>
  </diagram>
</mxfile>
